<?xml version="1.0" encoding="UTF-8"?>
<svg id="head_copy" data-name="head copy" xmlns="http://www.w3.org/2000/svg" xmlns:xlink="http://www.w3.org/1999/xlink" viewBox="0 0 1920 1920">
  <defs>
    <style>
      .cls-1 {
        fill: #d2fbff;
      }

      .cls-2 {
        filter: url(#outer-glow-1);
      }

      .cls-3 {
        fill: #00ff30;
      }

      .cls-4 {
        fill: #036600;
      }
    </style>
    <filter id="outer-glow-1" x="434" y="252" width="996" height="1240" filterUnits="userSpaceOnUse">
      <feOffset dx="0" dy="0"/>
      <feGaussianBlur result="blur" stdDeviation="30"/>
      <feFlood flood-color="#00ff18" flood-opacity=".75"/>
      <feComposite in2="blur" operator="in"/>
      <feComposite in="SourceGraphic"/>
    </filter>
  </defs>
  <path d="M916.43,89.03c625.17-27.13,1077.21,570.4,868.6,1165.13-231.66,660.43-1131.19,784.85-1537.27,215.68C-154.35,906.25,224.88,119.04,916.43,89.03ZM1623.4,1443.84c158.62-218.64,200.19-501.05,110.06-757.04C1573.21,231.65,1049.9,19.4,610.97,219.77,269.58,375.62,86.76,744.48,154.73,1113.77c22,119.52,72.42,231.03,141.57,330.07h1327.1ZM1576.55,1502.3H343.14c200.24,221.3,505.62,320.35,799.38,254.66,168.01-37.57,318.47-128.23,434.03-254.66Z"/>
  <path class="cls-1" d="M1623.4,1443.84H296.3c-69.16-99.04-119.58-210.55-141.57-330.07-67.96-369.29,114.86-738.15,456.25-894,438.92-200.37,962.24,11.88,1122.49,467.02,90.13,255.99,48.56,538.41-110.06,757.04ZM802.97,1167.1c1.51,51.4-2.09,102.48-6.44,153.62-1.92,22.56-19.24,76.4,16.33,80.54,18.38,2.14,62.54-32.97,80.55-43.82,96.92-58.38,181.65-92.13,293.8-112.33,15.42-2.78,57.15-4.57,66.92-12.58,8.46-6.93,7.22-17.48,6.28-27.58-5.53-59.33-22.62-110.46-21.32-174.41,2.41-118.34,75.62-169.77,94.02-275.57,52.29-300.59-227.16-469.06-496.21-395.22-158.35,43.46-231.18,168.49-227.79,328.75-23.07,52.84-56.74,105.2-77.87,158.49-21.66,54.61,10.77,78.23,63.33,75.12,7.31,83.69-31.16,215.02,73.55,249.85,25.36,8.43,55.5,8.42,81.95,5.59,17.71-1.89,35.56-6.66,52.91-10.46Z"/>
  <g class="cls-2">
    <path d="M802.97,1167.1c-17.35,3.79-35.2,8.57-52.91,10.46-26.46,2.83-56.6,2.84-81.95-5.59-104.7-34.83-66.24-166.15-73.55-249.85-52.55,3.11-84.98-20.52-63.33-75.12,21.14-53.3,54.81-105.65,77.87-158.49-3.39-160.26,69.44-285.29,227.79-328.75,269.05-73.84,548.49,94.63,496.21,395.22-18.4,105.8-91.62,157.23-94.02,275.57-1.3,63.95,15.79,115.08,21.32,174.41.94,10.1,2.18,20.65-6.28,27.58-9.78,8.01-51.5,9.8-66.92,12.58-112.15,20.2-196.87,53.95-293.8,112.33-18.01,10.85-62.17,45.96-80.55,43.82-35.57-4.14-18.26-57.98-16.33-80.54,4.35-51.14,7.95-102.22,6.44-153.62ZM1200.51,1186.42c-16.94-84.52-25.69-180.99,1.09-264.28,15.89-49.45,49-88.09,65.56-136.42,38.61-112.65,4.94-248.8-91.73-320.92-113.79-84.89-340.3-90.07-442.32,16.8-59.24,62.06-65.72,136.97-69.13,218.81l-82.29,164.84c-.51,3.55-.18,3.44,3.18,3.2,5.78-.41,10.44-2.5,17.2-2.33,24.65.62,44,14.39,46.27,39.81,4.16,46.47-10.19,152,7.35,188.19,23.32,48.09,117.78,27.79,158.46,14.34,20.04-6.63,52.31-27.9,67.72-31.12,16.09-3.35,33.25,1.79,35.04,19.89,3.03,30.68-38.55,42.64-60.38,54.12,5.61,55.86-.89,112.6-6.28,168.32,104.21-70.59,224.6-118.15,350.23-133.24Z"/>
  </g>
  <path class="cls-4" d="M1576.55,1502.3c-115.57,126.43-266.03,217.08-434.03,254.66-293.76,65.7-599.14-33.35-799.38-254.66h1233.41ZM920.73,1571.7c-39.36.81-141.43,1.43-173.39,17.85-18.32,9.42-18.31,28.8,0,38.23,27.06,13.94,105.74,17.48,138.29,18.58,68.52,2.32,215.64,6,277.32-15.09,35.69-12.2,30.58-36.59-3.25-46.26-59.91-17.12-174.53-14.64-238.98-13.32Z"/>
  <path d="M920.73,1571.7c64.45-1.32,179.06-3.8,238.98,13.32,33.82,9.66,38.93,34.05,3.25,46.26-61.68,21.09-208.81,17.41-277.32,15.09-32.55-1.1-111.23-4.64-138.29-18.58-18.31-9.43-18.32-28.82,0-38.23,31.95-16.42,134.03-17.05,173.39-17.85Z"/>
  <path class="cls-3" d="M1200.51,1186.42c-125.63,15.09-246.02,62.65-350.23,133.24,5.39-55.72,11.89-112.46,6.28-168.32,21.83-11.48,63.41-23.44,60.38-54.12-1.79-18.1-18.95-23.24-35.04-19.89-15.41,3.21-47.68,24.49-67.72,31.12-40.68,13.45-135.14,33.75-158.46-14.34-17.55-36.18-3.2-141.72-7.35-188.19-2.27-25.42-21.63-39.19-46.27-39.81-6.76-.17-11.42,1.92-17.2,2.33-3.36.24-3.69.34-3.18-3.2l82.29-164.84c3.41-81.84,9.89-156.74,69.13-218.81,102.01-106.87,328.52-101.7,442.32-16.8,96.67,72.12,130.34,208.27,91.73,320.92-16.57,48.33-49.67,86.97-65.56,136.42-26.77,83.29-18.03,179.76-1.09,264.28Z"/>
</svg>